<?xml version="1.0" standalone="no"?>
<!DOCTYPE svg PUBLIC "-//W3C//DTD SVG 20010904//EN"
 "http://www.w3.org/TR/2001/REC-SVG-20010904/DTD/svg10.dtd">
<svg version="1.0" xmlns="http://www.w3.org/2000/svg"
  width="416.000000pt" height="265.000000pt" viewBox="0 0 416.000000 265.000000"
 preserveAspectRatio="xMidYMid meet">

<g transform="translate(0.000000,265.000000) scale(0.100000,-0.100000)"
fill="#000000" stroke="none">
<path d="M1782 2263 c-19 -4 -15 -10 38 -49 77 -58 85 -72 24 -41 -114 58
-162 46 -283 -68 -103 -98 -230 -188 -289 -206 -60 -18 -32 -31 68 -33 43 0
76 -4 74 -8 -2 -3 -28 -20 -57 -36 -74 -43 -143 -113 -156 -159 -6 -21 -11
-74 -11 -118 0 -45 -7 -108 -15 -140 -15 -60 -94 -224 -123 -258 -8 -9 -13
-19 -10 -22 7 -8 168 73 208 105 21 17 41 30 45 30 3 0 -14 -26 -38 -57 -24
-32 -50 -69 -57 -82 -19 -36 -6 -106 36 -196 31 -64 38 -92 38 -140 1 -68 -27
-134 -72 -173 l-27 -24 58 5 c33 3 74 15 94 27 l36 21 -7 -38 c-3 -21 -9 -58
-13 -82 l-6 -43 48 36 c26 20 49 35 51 33 2 -2 0 -28 -6 -57 -18 -95 -16 -97
45 -44 31 26 58 45 60 42 3 -3 -4 -27 -16 -54 -16 -39 -20 -65 -17 -124 3 -69
6 -80 41 -128 20 -29 37 -60 37 -71 0 -26 21 -85 34 -93 19 -13 25 -9 54 31
l28 38 20 -31 c12 -17 33 -38 48 -46 26 -13 29 -13 42 5 8 10 14 37 14 59 l0
41 36 -42 c20 -24 44 -43 54 -43 24 0 34 45 25 108 -3 27 -2 60 4 75 l11 28
38 -31 37 -30 6 33 c6 40 48 114 80 142 l22 20 -7 -25 c-12 -42 -19 -100 -12
-100 3 0 15 5 26 12 10 7 22 9 26 5 4 -4 8 -49 8 -100 1 -86 2 -92 22 -95 12
-2 31 7 45 22 29 31 39 32 39 7 0 -76 50 -64 107 25 11 18 12 18 12 -4 1 -37
30 -72 60 -72 33 1 52 27 91 126 27 66 31 89 29 154 -1 42 2 84 7 92 5 9 41
51 79 93 74 81 88 105 79 130 -5 13 -2 13 27 1 19 -8 58 -18 86 -24 58 -10 57
-12 11 52 -19 27 -28 51 -28 78 0 55 56 186 101 233 42 45 45 32 -31 145 -82
121 -92 165 -22 99 52 -51 103 -83 145 -93 l29 -7 -21 30 c-12 17 -37 63 -55
103 -22 47 -57 99 -101 148 -72 80 -87 104 -103 163 l-10 37 31 -22 c38 -28
103 -58 124 -58 10 0 0 21 -30 64 -41 58 -97 196 -97 238 0 35 -26 71 -75 104
l-50 34 43 0 c37 0 42 2 34 17 -6 9 -56 57 -113 106 l-104 89 -75 -5 c-50 -4
-96 -14 -138 -32 -35 -15 -66 -24 -69 -22 -7 7 91 89 137 113 37 20 38 22 18
28 -35 9 -74 7 -147 -6 -60 -11 -71 -18 -123 -68 l-58 -56 -56 57 c-71 72
-138 92 -242 72z m159 -528 c42 -40 58 -81 65 -169 12 -131 -23 -214 -107
-256 -54 -28 -97 -25 -151 9 -77 49 -92 79 -91 185 0 110 14 146 80 217 l48
51 62 -4 c53 -3 68 -9 94 -33z m-301 -478 c59 -16 65 -42 15 -63 -72 -30 -275
-12 -275 24 0 43 155 66 260 39z m1050 -11 c67 -30 1 -70 -115 -70 -100 0
-165 18 -165 43 0 23 19 31 90 40 67 9 156 3 190 -13z m-1094 -189 c15 -23 34
-46 42 -51 32 -18 102 -89 123 -123 12 -19 34 -74 49 -124 l28 -89 -27 0 c-35
0 -48 -10 -56 -43 -6 -23 -12 -27 -42 -27 -26 0 -42 -8 -65 -32 -40 -43 -79
-63 -90 -46 -36 55 -50 82 -73 143 -23 61 -25 80 -20 145 7 99 7 153 0 222 -7
54 -6 57 21 71 39 21 76 5 110 -46z m992 47 c20 -14 22 -23 22 -122 1 -59 7
-132 14 -163 11 -46 11 -70 1 -130 -17 -103 -30 -132 -53 -120 -9 5 -30 7 -45
4 -15 -3 -33 0 -41 6 -24 20 -76 31 -101 21 -17 -6 -27 -5 -35 5 -6 7 -33 19
-60 25 l-50 12 -2 46 c0 26 -1 52 -1 58 1 26 96 155 136 184 48 34 77 84 77
130 0 51 88 79 138 44z m-719 -513 c33 -90 26 -105 -32 -66 -51 35 -61 31 -37
-15 26 -51 25 -60 -6 -60 -36 0 -134 73 -134 100 0 15 36 30 69 30 26 0 33 6
45 35 12 29 20 35 44 35 27 0 31 -5 51 -59z m462 1 c22 -19 22 -19 3 -45 -22
-29 -65 -57 -88 -57 -17 0 -21 33 -10 89 6 27 11 31 39 31 18 0 43 -8 56 -18z
m139 -27 l30 -15 -28 -31 c-31 -35 -98 -73 -113 -64 -11 7 -3 79 12 107 12 22
59 24 99 3z m106 -26 c10 -18 -50 -84 -77 -84 -20 0 -23 5 -21 25 4 42 30 70
62 70 16 0 32 -5 36 -11z m-893 -48 c19 -33 23 -91 6 -91 -6 0 -34 19 -61 42
l-50 42 22 18 c33 27 63 23 83 -11z m-73 -66 c35 -35 51 -45 77 -45 18 0 33 5
33 11 0 6 21 -8 46 -30 54 -47 64 -50 64 -18 0 12 7 30 14 40 13 17 14 16 20
-5 3 -13 21 -47 40 -75 19 -29 31 -55 27 -58 -5 -2 -11 -18 -14 -35 -4 -20
-13 -30 -24 -30 -10 0 -31 -8 -48 -18 -30 -17 -44 -18 -219 -8 -45 2 -51 5
-79 45 -25 37 -29 52 -30 115 -1 52 4 85 17 114 11 23 22 42 25 42 4 0 27 -20
51 -45z m906 -18 c-1 -16 5 -22 19 -22 28 0 35 -13 35 -65 0 -61 -17 -117 -38
-125 -74 -28 -256 -21 -308 12 -20 13 -52 71 -43 76 3 1 25 22 51 46 l47 44
-9 -39 c-5 -21 -7 -40 -5 -42 10 -10 80 36 132 86 49 49 63 57 89 54 24 -3 30
-8 30 -25z m-287 -228 c37 -13 39 -27 6 -63 -35 -38 -45 -33 -45 24 0 28 2 50
4 50 1 0 17 -5 35 -11z m129 -25 c6 -2 12 -8 12 -13 0 -16 -52 -72 -64 -68 -6
2 -11 25 -11 50 -1 49 2 50 63 31z m158 0 c-3 -9 -6 -19 -6 -24 0 -13 -50 -70
-61 -70 -8 0 -49 81 -49 95 0 4 48 11 94 13 22 2 27 -1 22 -14z m-596 -49 c0
-68 -15 -72 -60 -16 l-31 40 28 15 c53 29 63 22 63 -39z m-244 21 c6 -17 -26
-88 -43 -94 -13 -4 -26 21 -38 76 l-7 32 42 0 c25 0 43 -5 46 -14z m130 -37
c4 -47 -17 -79 -42 -63 -23 13 -50 52 -59 82 -6 22 -5 23 45 20 52 -3 52 -3
56 -39z"/>
<path d="M1769 1687 c-18 -12 -46 -47 -62 -77 -25 -47 -28 -63 -24 -108 10
-94 62 -142 154 -142 46 0 56 4 87 35 39 39 51 89 44 182 -4 50 -9 60 -46 95
-50 46 -99 51 -153 15z m169 -78 c4 -34 -20 -54 -47 -39 -20 10 -29 49 -14 64
4 4 19 6 33 4 19 -2 26 -10 28 -29z m-153 -179 c36 -24 56 -25 96 -5 34 18 57
11 38 -12 -24 -28 -70 -45 -106 -38 -38 7 -88 49 -78 65 9 14 16 13 50 -10z"/>
</g>
</svg>
